HIERARCHY
ROOT Hips
{
	OFFSET -3.958830 18.904000 13.208200
	CHANNELS 6 Xposition Yposition Zposition Zrotation Yrotation Xrotation 
	JOINT LHipJoint
	{
		OFFSET 0.000000 0.000000 0.000000
		CHANNELS 3 Zrotation Yrotation Xrotation
		JOINT LeftUpLeg
		{
			OFFSET 1.800000 -1.400000 0.085000
			CHANNELS 3 Zrotation Yrotation Xrotation
			JOINT LeftLeg
			{
				OFFSET 2.215000 -6.000000 0.000000
				CHANNELS 3 Zrotation Yrotation Xrotation
				JOINT LeftFoot
				{
					OFFSET 2.500000 -6.900000 0.000000
					CHANNELS 3 Zrotation Yrotation Xrotation
					JOINT LeftToeBase
					{
						OFFSET 0.200000 -0.500000 1.950000
						CHANNELS 3 Zrotation Yrotation Xrotation
						End Site
						{
							OFFSET 0.000000 0.000000 0.000000
						}
					}
				}
			}
		}
	}
	JOINT RHipJoint
	{
		OFFSET 0.000000 0.000000 0.000000
		CHANNELS 3 Zrotation Yrotation Xrotation
		JOINT RightUpLeg
		{
			OFFSET -1.800000 -1.400000 0.085000
			CHANNELS 3 Zrotation Yrotation Xrotation
			JOINT RightLeg
			{
				OFFSET -2.215000 -6.000000 0.000000
				CHANNELS 3 Zrotation Yrotation Xrotation
				JOINT RightFoot
				{
					OFFSET -2.500000 -6.900000 0.000000
					CHANNELS 3 Zrotation Yrotation Xrotation
					JOINT RightToeBase
					{
						OFFSET -0.200000 -0.500000 1.950000
						CHANNELS 3 Zrotation Yrotation Xrotation
						End Site
						{
							OFFSET 0.000000 0.000000 0.000000
						}
					}
				}
			}
		}
	}
	JOINT LowerBack
	{
		OFFSET 0.000000 0.000000 0.000000
		CHANNELS 3 Zrotation Yrotation Xrotation
		JOINT Spine
		{
			OFFSET -0.087000 1.940000 -0.288900
			CHANNELS 3 Zrotation Yrotation Xrotation
			JOINT Spine1
			{
				OFFSET 0.000000 1.950000 0.060000
				CHANNELS 3 Zrotation Yrotation Xrotation
				JOINT Neck
				{
					OFFSET 0.000000 0.000000 0.000000
					CHANNELS 3 Zrotation Yrotation Xrotation
					JOINT Neck1
					{
						OFFSET 0.000000 1.600000 0.340000
						CHANNELS 3 Zrotation Yrotation Xrotation
						JOINT Head
						{
							OFFSET 0.000000 1.667000 -0.240000
							CHANNELS 3 Zrotation Yrotation Xrotation
							End Site
							{
								OFFSET 0.000000 0.000000 0.000000
							}
						}
					}
				}
				JOINT LeftShoulder
				{
					OFFSET 0.000000 0.000000 0.000000
					CHANNELS 3 Zrotation Yrotation Xrotation
					JOINT LeftArm
					{
						OFFSET 2.700000 1.550000 -0.730000
						CHANNELS 3 Zrotation Yrotation Xrotation
						JOINT LeftForeArm
						{
							OFFSET 5.450000 0.000000 0.000000
							CHANNELS 3 Zrotation Yrotation Xrotation
							JOINT LeftHand
							{
								OFFSET 3.450000 0.000000 0.000000
								CHANNELS 3 Zrotation Yrotation Xrotation
								JOINT LeftHandIndex1
								{
									OFFSET 0.750000 0.000000 0.000000
									CHANNELS 3 Zrotation Yrotation Xrotation
									End Site
									{
										OFFSET 0.000000 0.000000 0.000000
									}
								}
							}
						}
					}
				}
				JOINT RightShoulder
				{
					OFFSET 0.000000 0.000000 0.000000
					CHANNELS 3 Zrotation Yrotation Xrotation
					JOINT RightArm
					{
						OFFSET -2.700000 1.550000 -0.730000
						CHANNELS 3 Zrotation Yrotation Xrotation
						JOINT RightForeArm
						{
							OFFSET -5.450000 0.000000 0.000000
							CHANNELS 3 Zrotation Yrotation Xrotation
							JOINT RightHand
							{
								OFFSET -3.450000 0.000000 0.000000
								CHANNELS 3 Zrotation Yrotation Xrotation
								JOINT RightHandIndex1
								{
									OFFSET -0.750000 0.000000 0.000000
									CHANNELS 3 Zrotation Yrotation Xrotation
									End Site
									{
										OFFSET 0.000000 0.000000 0.000000
									}
								}
							}
						}
					}
				}
			}
		}
	}
}
MOTION
Frames: 14
Frame Time: 0.016667
-0.759230 15.327590 -0.911800 -10.834395 -42.762065 -10.783298 -15.399062 14.612693 2.343698 8.960618 -2.443656 -10.961242 16.822439 3.354613 61.322337 1.155389 10.381658 1.035063 0.295670 0.228920 0.136710 17.945271 -10.573981 2.910975 -4.600570 3.390450 -19.869449 10.206463 -6.207206 21.301223 -0.074769 -3.511161 3.181615 0.235190 0.199580 0.032750 -1.991830 -3.625891 -7.130233 -2.361304 2.035787 12.751144 7.007456 2.249832 5.059250 -0.770458 -2.689161 -5.090403 -8.831592 11.074113 44.206438 5.018560 7.707010 -0.550820 -24.600921 0.181838 0.223212 -40.762450 -7.481697 -2.436385 -27.427993 -38.906605 8.049969 -3.752074 3.268514 0.158660 0.134800 -0.065950 0.174020 27.202924 3.550927 1.674207 32.489137 2.078738 -9.664583 13.030452 46.290912 3.876756 2.116667 -1.643253 -0.142680 0.183010 -0.068940 -0.093460 
-0.768870 15.285750 -0.900500 -11.417989 -42.945705 -10.565798 -15.392695 14.633091 2.316460 8.315660 -2.430061 -10.508555 18.696010 2.011844 61.462041 1.190864 10.411836 1.036022 0.295590 0.228000 0.131450 17.947814 -10.551889 2.964460 -5.029469 3.511241 -19.860273 11.505404 -6.574928 21.285370 -0.096048 -3.644383 3.131526 0.233170 0.200690 0.038530 -2.020612 -3.649818 -7.131264 -1.732267 1.876862 12.638958 7.283445 2.052718 4.779480 -0.922850 -2.920588 -4.938560 -9.481151 11.265067 44.621811 4.829440 7.577120 -0.208370 -24.919803 0.440731 0.081312 -41.075798 -7.579660 -2.134419 -25.762859 -35.570875 6.758896 -3.765831 3.242620 0.152570 0.137700 -0.067910 0.175750 27.828685 3.448382 1.464924 32.525738 2.604576 -9.696388 12.743041 46.512433 3.811168 2.117199 -1.650326 -0.136420 0.176070 -0.067350 -0.089280 
-0.756650 15.224870 -0.907600 -12.216806 -43.165815 -10.339491 -15.378391 14.628181 2.306085 7.370349 -2.231640 -10.406977 21.349139 0.276253 61.823949 1.264834 10.526763 1.013695 0.275770 0.198820 0.141320 17.947661 -10.506798 3.099570 -5.989102 3.891184 -20.113001 14.056038 -7.244765 21.224142 -0.141486 -3.885507 3.041903 0.206870 0.183340 0.038370 -2.069448 -3.604896 -7.234988 -0.819705 1.608983 13.184300 7.179363 1.777125 3.739178 -0.662016 -2.832344 -4.885215 -9.378981 11.485847 46.646393 3.824890 8.098590 0.786270 -26.517291 0.460391 0.185486 -40.568070 -5.302081 -2.596232 -22.958952 -28.820925 4.456754 -3.776827 3.169898 0.160170 0.135730 -0.058110 0.162700 29.035596 3.482570 0.973281 33.021097 3.779440 -9.816743 12.084071 46.150727 3.579827 2.140213 -1.616785 -0.135810 0.162710 -0.066440 -0.099640 
-0.739900 15.168270 -0.915740 -12.997410 -43.130118 -9.883703 -15.373980 14.625317 2.289369 6.308054 -1.808040 -10.365769 24.337766 -1.612586 61.327668 1.323793 10.581641 1.000296 0.261780 0.172770 0.163000 17.939836 -10.475661 3.216557 -6.867669 4.141415 -20.012742 16.149694 -7.560243 20.262234 -0.170524 -4.008259 2.987532 0.182730 0.154800 0.041900 -2.083764 -3.537165 -7.316133 -0.236560 1.455869 13.459937 7.377000 1.561347 2.654372 -0.282323 -2.309105 -4.743109 -7.930668 11.617133 48.216369 3.173340 9.054850 1.593980 -28.151828 0.754757 0.540758 -40.289684 -1.660219 -3.335279 -21.487006 -22.738827 2.795849 -3.774330 3.131756 0.170070 0.129750 -0.045970 0.141020 30.147050 3.077813 0.211816 33.622685 4.852331 -10.100583 11.498510 47.110889 3.547475 2.155808 -1.602750 -0.132220 0.135460 -0.066840 -0.117850 
-0.707050 15.123660 -0.913060 -13.395548 -43.346150 -9.485670 -15.363421 14.633547 2.272467 5.201543 -1.215417 -9.768530 26.154986 -2.644545 60.219692 1.351726 10.540478 1.027615 0.233100 0.133390 0.167840 17.936337 -10.457190 3.313525 -7.674100 4.272583 -19.903020 17.621467 -7.587831 18.925106 -0.170663 -4.047331 2.974638 0.156580 0.149650 0.044360 -2.106305 -3.490293 -7.375696 0.420042 1.098510 13.448033 7.195667 1.161683 1.599811 0.111716 -1.949096 -4.574580 -6.836921 11.653972 49.377855 2.088250 9.897190 2.765640 -30.192362 0.812394 0.783428 -39.547289 1.193877 -3.263646 -18.437261 -14.848163 0.979483 -3.795931 3.063789 0.165400 0.142930 -0.049780 0.126180 31.592005 2.856917 -0.417762 34.186189 5.840541 -10.347952 11.195052 49.017921 3.694616 2.158016 -1.605394 -0.137440 0.118470 -0.061380 -0.129310 
-0.664040 15.108890 -0.930520 -13.811963 -43.743673 -8.941550 -15.336961 14.632980 2.234899 4.593576 -0.527033 -9.432663 27.126363 -2.997624 58.582838 1.327122 10.354093 1.080072 0.208850 0.096240 0.182340 17.949039 -10.507280 3.378435 -7.694981 4.294920 -19.772881 17.777736 -7.184625 17.273192 -0.145538 -3.894508 3.028213 0.125840 0.128090 0.053350 -2.185961 -3.314352 -7.380633 1.124328 1.063115 13.301745 7.145741 1.030320 1.345538 0.440399 -1.357634 -4.685771 -5.188081 11.291448 50.820757 0.917560 10.762000 3.574300 -30.605471 0.981236 1.289339 -39.562288 3.989883 -3.581644 -16.716503 -11.062089 0.200303 -3.807219 3.016138 0.171910 0.146860 -0.040520 0.103610 31.466601 2.454619 -0.937300 36.271824 6.885495 -10.552300 11.155564 51.570032 3.973981 2.160380 -1.594353 -0.134570 0.093640 -0.054540 -0.146490 
-0.594970 15.115800 -0.963360 -13.939114 -42.989779 -8.271887 -15.328339 14.648004 2.246228 3.980508 -0.168729 -10.286602 27.813236 -3.231825 57.073447 1.292337 10.138590 1.133053 0.206410 0.088060 0.194240 17.949552 -10.531221 3.372906 -7.550631 3.964576 -19.322192 16.789530 -6.288304 14.440701 -0.091277 -3.541991 3.155329 0.110750 0.105390 0.061910 -2.194887 -3.288108 -7.398490 1.332716 0.573334 13.313824 7.582652 0.450148 0.986641 0.411510 -1.316249 -4.743279 -4.751713 11.280841 51.849172 0.146180 11.061340 4.162630 -30.629209 1.504456 1.804743 -40.321162 7.002371 -3.709152 -15.041992 -5.631305 -0.647300 -3.822776 2.969093 0.170810 0.140620 -0.028970 0.094490 31.714456 2.164076 -1.675174 37.980876 8.591621 -10.487849 10.791650 54.488868 4.239149 2.163182 -1.596068 -0.119550 0.070090 -0.058560 -0.149970 
-0.519800 15.141680 -1.006450 -13.865422 -42.847601 -7.594914 -15.307440 14.632751 2.218498 3.802937 0.329464 -11.400082 27.229615 -2.551832 56.131630 1.222958 9.916321 1.186559 0.196560 0.068420 0.205970 17.964330 -10.592475 3.384648 -7.047664 3.589477 -18.733076 15.331164 -5.306360 11.205646 -0.039208 -3.183590 3.294531 0.096000 0.090450 0.064490 -2.264609 -3.120567 -7.394432 1.629810 0.460379 13.260543 7.836369 0.293321 0.725685 0.346925 -1.335617 -4.725850 -4.318906 11.013040 52.275156 -0.987080 11.257130 4.352120 -30.496082 2.204898 2.230730 -40.998327 9.937548 -4.092688 -13.024747 -2.514974 -1.044678 -3.842698 2.908190 0.176630 0.138380 -0.023210 0.083180 31.771750 1.866446 -2.339006 40.240700 10.487256 -10.404104 8.335451 57.503471 3.507291 2.145235 -1.573843 -0.119060 0.062090 -0.056080 -0.159200 
-0.422950 15.183030 -1.062500 -13.365941 -42.677109 -7.034833 -15.297723 14.545434 2.178062 3.412346 0.718783 -12.772894 26.405930 -1.798830 54.760950 1.117414 9.604810 1.267183 0.188510 0.054750 0.216810 17.982338 -10.625669 3.428815 -6.742120 3.181457 -18.018749 13.944837 -4.323617 7.201214 -0.009817 -2.914167 3.401972 0.090510 0.086770 0.071760 -2.358948 -2.871024 -7.383690 1.710737 0.710394 13.292424 8.016294 0.472332 0.764680 0.312462 -1.012532 -4.430366 -2.936240 10.573151 51.694910 -1.933670 11.664880 3.973240 -29.948482 3.421344 2.405350 -41.113612 12.838544 -4.935597 -12.033152 -2.453778 -1.135110 -3.853777 2.870930 0.180600 0.145200 -0.020110 0.073430 31.324660 0.885207 -3.064171 42.824425 12.247993 -9.960066 7.008342 62.011707 3.270142 2.109846 -1.577371 -0.123640 0.061810 -0.050140 -0.168690 
-0.311640 15.236440 -1.133110 -12.544507 -42.336046 -6.703614 -15.306382 14.485250 2.176561 2.848859 0.931750 -14.391442 25.497281 -1.090464 53.386585 1.002676 9.270512 1.349544 0.207130 0.072320 0.235820 17.986847 -10.615562 3.456188 -6.202009 2.873682 -17.562618 11.855167 -3.455776 3.910605 0.005680 -2.682233 3.492637 0.103430 0.070770 0.075990 -2.369299 -2.777927 -7.413586 1.483815 1.092700 13.801422 8.666771 0.849801 0.930965 0.071544 -1.318234 -4.373679 -3.219926 10.439525 50.802130 -2.777450 11.455370 2.884440 -29.102568 4.163602 2.570887 -41.072878 14.808953 -5.371236 -11.874831 -1.263233 -1.338740 -3.855959 2.843982 0.190180 0.136470 -0.009000 0.071550 30.931200 0.968314 -3.278629 43.619085 13.889100 -9.470765 4.502189 67.449432 2.328679 2.053420 -1.595907 -0.120320 0.065730 -0.055040 -0.174590 
-0.183480 15.297770 -1.194890 -11.651587 -41.860201 -6.384830 -15.306857 14.426685 2.207455 1.968770 0.916712 -15.671951 24.717496 -0.664099 51.146437 0.868761 8.788178 1.485019 0.226900 0.095030 0.250000 17.994405 -10.577858 3.498821 -6.076527 2.652306 -17.260419 9.708841 -2.732655 0.882807 0.007324 -2.536418 3.552190 0.117230 0.052190 0.074100 -2.400620 -2.757674 -7.480110 1.607798 1.225693 14.545588 9.091638 1.030131 1.081020 -0.162497 -2.026118 -4.560818 -4.506609 10.444900 49.688028 -3.632930 10.953650 1.687610 -28.226280 4.511872 2.809116 -41.026729 16.788079 -5.845466 -12.507453 0.515638 -1.669015 -3.851302 2.818552 0.198020 0.121400 0.002670 0.072570 30.409032 1.600124 -3.119516 43.442640 14.876044 -9.078783 1.898993 73.187882 0.916815 1.998208 -1.616744 -0.114650 0.072340 -0.062650 -0.175660 
-0.045660 15.357410 -1.250270 -10.755651 -40.842852 -6.070017 -15.276070 14.310058 2.255380 1.159725 0.742079 -16.902767 23.487481 -0.112080 48.887179 0.724309 8.269436 1.637786 0.249160 0.125470 0.265600 18.022758 -10.622468 3.514799 -6.602469 2.528884 -17.404410 8.267376 -2.409771 -0.423173 0.007277 -2.499087 3.562453 0.139740 0.043470 0.078930 -2.544509 -2.521106 -7.508397 2.063667 1.356773 15.254023 8.789785 1.128261 1.469453 -0.179626 -2.050981 -4.524189 -4.106445 9.807530 47.642748 -4.356350 10.528070 0.260780 -27.410067 4.616328 3.002971 -39.757545 18.294000 -6.026192 -13.135006 2.267040 -2.026838 -3.853246 2.811841 0.190120 0.121050 0.007070 0.074920 29.507692 1.886095 -3.251047 44.043379 16.711705 -8.387952 -4.507621 77.692497 -3.615342 1.917035 -1.571477 -0.107460 0.076350 -0.072010 -0.174830 
0.109630 15.411760 -1.311700 -10.022602 -39.281809 -5.713273 -15.229454 14.171513 2.346698 0.402060 0.301277 -18.275998 22.203070 0.296108 46.496353 0.575634 7.731203 1.805051 0.256750 0.139230 0.272890 18.059800 -10.699475 3.500782 -7.372214 2.425220 -17.665901 7.253917 -2.299765 -0.699162 0.018194 -2.506126 3.553943 0.156550 0.050480 0.091870 -2.724539 -2.232243 -7.541323 2.966628 1.512298 16.206472 7.927654 1.309498 1.843865 0.148418 -1.437238 -4.403128 -2.506229 8.750996 44.972247 -5.046000 10.265080 -0.809240 -27.325393 4.367643 3.078967 -37.315159 19.802183 -6.141547 -14.408714 3.386236 -2.459397 -3.855555 2.830772 0.167760 0.140620 -0.002410 0.073480 28.622976 1.853431 -3.319166 43.759813 17.490158 -7.811327 -9.586041 82.710748 -8.246136 1.836153 -1.543770 -0.103710 0.073330 -0.072800 -0.174500 
0.255180 15.471010 -1.385870 -9.395037 -37.634518 -5.393313 -15.193906 14.043747 2.439440 -0.041023 -0.172716 -19.675156 20.532395 0.856115 44.401736 0.423372 7.236681 1.963862 0.268260 0.154780 0.277280 18.083802 -10.752830 3.478939 -8.445159 2.384543 -17.821728 8.019453 -2.502752 0.110671 0.019475 -2.602364 3.509271 0.181830 0.062840 0.098330 -2.853864 -2.013593 -7.563330 3.683347 1.685412 17.123649 7.374647 1.514126 2.215587 0.390169 -0.935063 -4.300551 -1.349817 7.750688 42.546865 -5.444020 9.689600 -1.797880 -27.078954 4.090734 3.227984 -34.878527 21.356097 -6.260549 -15.520307 3.947862 -2.848524 -3.848627 2.850114 0.153960 0.157740 -0.014810 0.078280 27.776491 2.025992 -3.460264 42.589459 18.079835 -7.775011 -21.536364 87.377321 -19.357006 1.693513 -1.324774 -0.111090 0.080470 -0.075310 -0.174830 
